# xmcd CD database file
#
# Track frame offsets:
#	150
#	17025
#	33000
#	48790
#	66075
#	79200
#	96900
#	117975
#	132825
#	143700
#	162075
#	177450
#	190770
#	202440
#	219875
#	236660
#
# Disc length: 3365 seconds
#
# Revision: 1
# Processed by: cddbd v1.5.2PL0 Copyright (c) Steve Scherf et al.
# Submitted via: CDex 1.51
#
DISCID=dc0d2310
DTITLE=Jens Böttcher - Reisefieber (Westseite)
DYEAR=2007
DGENRE=Christian Rock
TTITLE0=Wie der Wind
TTITLE1=Nur in Dir
TTITLE2=Stell Dir vor
TTITLE3=Immer weiter
TTITLE4=Nur die Liebe
TTITLE5=Nie näher
TTITLE6=Sehnsucht
TTITLE7=Mein Herz
TTITLE8=Alleine schaff ich's nicht
TTITLE9=Unter Deinen Schwingen
TTITLE10=September
TTITLE11=An Deiner Seite sein
TTITLE12=Knochen
TTITLE13=Zurück zu Dir
TTITLE14=Pilger
TTITLE15=Auf Bald
EXTD=YEAR: 2007
EXTT0=
EXTT1=
EXTT2=
EXTT3=
EXTT4=
EXTT5=
EXTT6=
EXTT7=
EXTT8=
EXTT9=
EXTT10=
EXTT11=
EXTT12=
EXTT13=
EXTT14=
EXTT15=
PLAYORDER=
